<?xml version="1.0" standalone="no"?>
<!DOCTYPE svg PUBLIC "-//W3C//DTD SVG 20010904//EN"
 "http://www.w3.org/TR/2001/REC-SVG-20010904/DTD/svg10.dtd">
<svg version="1.0" xmlns="http://www.w3.org/2000/svg"
 width="353.000000pt" height="352.000000pt" viewBox="0 0 353.000000 352.000000"
 preserveAspectRatio="xMidYMid meet">

<g transform="translate(0.000000,352.000000) scale(0.100000,-0.100000)"
fill="#000000" stroke="none">
<path d="M0 1760 l0 -1760 1765 0 1765 0 0 1760 0 1760 -1765 0 -1765 0 0
-1760z m2363 990 c14 -20 7 -83 -29 -248 -13 -62 -84 -66 -84 -6 0 13 10 72
21 132 15 76 27 112 41 125 26 22 34 22 51 -3z m-1326 -279 c40 -59 75 -115
79 -125 8 -22 -13 -46 -41 -46 -18 0 -37 22 -88 98 -87 131 -90 138 -77 162 6
11 21 20 33 20 17 0 39 -26 94 -109z m1731 87 c7 -7 12 -21 12 -31 0 -31 -112
-227 -142 -249 l-28 -19 -10 26 c-16 41 -13 49 41 146 75 136 70 129 110 138
3 0 10 -4 17 -11z m-798 -233 c58 -30 138 -72 178 -92 39 -21 71 -40 70 -44
-2 -3 -246 -219 -543 -479 -297 -261 -572 -502 -610 -536 l-70 -62 -188 139
c-103 76 -187 142 -186 146 1 20 1082 933 1142 966 53 29 93 21 207 -38z
m-1305 -68 c121 -91 140 -120 84 -132 -27 -6 -41 0 -98 38 -136 94 -170 134
-139 165 22 22 42 12 153 -71z m2413 -48 c3 -28 -27 -56 -172 -157 -64 -46
-96 -44 -96 3 0 28 11 39 125 125 61 45 87 59 110 57 24 -2 31 -7 33 -28z
m-691 -121 c25 -24 64 -67 86 -97 l39 -53 -28 -28 c-16 -15 -110 -101 -209
-192 -99 -90 -395 -361 -657 -601 -276 -252 -486 -437 -496 -437 -17 0 -22 18
-42 165 -22 160 -22 165 -4 189 20 26 967 869 1138 1012 55 46 106 84 113 84
7 0 34 -19 60 -42z m-1903 -183 c107 -27 126 -37 126 -69 0 -43 -26 -45 -164
-10 -71 17 -132 38 -137 45 -10 17 -12 43 -2 52 13 13 79 6 177 -18z m2251
-161 c105 -26 192 -48 193 -50 5 -3 -118 -177 -177 -251 -28 -35 -49 -53 -64
-53 -29 0 -488 123 -484 131 6 15 274 262 292 269 11 5 27 7 35 5 8 -2 101
-25 205 -51z m319 -234 c25 -49 46 -97 46 -108 0 -17 -232 -354 -248 -360 -4
-1 -18 55 -31 125 -13 69 -26 134 -28 143 -5 19 194 303 207 295 4 -3 29 -45
54 -95z m-643 -146 c145 -41 270 -82 278 -89 13 -12 61 -234 61 -281 l0 -22
-133 29 c-216 46 -389 95 -587 167 -69 24 -129 48 -133 52 -10 9 217 220 237
220 7 0 132 -34 277 -76z m-1658 -190 c100 -75 187 -142 194 -148 12 -11 47
-262 41 -293 -2 -11 -57 28 -193 136 -249 200 -245 196 -245 274 0 66 10 167
17 167 2 0 86 -61 186 -136z"/>
</g>
</svg>
